<svg id="Layer_1" data-name="Layer 1" xmlns="http://www.w3.org/2000/svg" viewBox="0 0 1236.85 1238.1"><defs><style>.cls-1{fill:#fff;}.cls-2{fill:#f4f3f4;}</style></defs><path class="cls-1" d="M104.42,349.08c-.1-33.95,20.57-72.35,38-73.12,4.34-.19,11.17,1.46,15.47-2.81s2.88-10.87,2.82-16.88a61.89,61.89,0,0,1,14.06-36.56c18.07-22,63.09-22.37,75.94-5.63,4.41,5.76,5.64,14.35,7,14.07s-.7-10.45,0-16.88c2.64-24.37,53.17-56.58,98-42.19,37.27,12,56.4,51.64,55.78,66.1-.06,1.38-.54,8.08.94,8.43,1.65.4,4.54-7.39,6.09-10.31,9-16.86,53.88-22.69,89.06-7s49.09,47.44,53,56.25c8.3,18.81,14.33,47.08,8.44,57.66-.44.78-2.68,4.59-1.41,6.09,1.59,1.87,7.32-1.37,11.25-2.34,12.65-3.13,29.39,11.53,37,23.9,18.16,29.39-2.71,65.76-3.75,67.5-12.07,20.34-30.74,29-38,31.88H232.39c-.68,0-1.65,0-2.81,0C173,466.31,104.62,410.55,104.42,349.08Z"/><path class="cls-2" d="M277.55,504c-44.81-5.56-78.09-36.47-81.82-71.22-3.54-33,19.27-72.3,38-73.13,4.34-.19,11.17,1.46,15.47-2.81S252.05,346,252,340a62,62,0,0,1,14.07-36.56c18.07-22,63.09-22.37,75.94-5.62,4.41,5.75,5.64,14.34,7,14.06s-.7-10.45,0-16.88c2.63-24.37,53.16-56.57,98-42.18,37.27,12,56.4,51.64,55.78,66.09-.06,1.39-.54,8.08.93,8.44,1.66.4,4.55-7.4,6.1-10.31,9-16.87,53.88-22.69,89.06-7s49.09,47.45,53,56.25c8.3,18.82,14.33,47.09,8.44,57.66-.44.78-2.68,4.6-1.41,6.09,1.59,1.87,7.32-1.37,11.25-2.34,12.65-3.13,29.39,11.54,37,23.91,18.16,29.39-2.71,65.75-3.75,67.5-12.07,20.33-30.74,29-38,31.87H323.7a22,22,0,0,1-2.81,0C298.17,549.63,283,517.13,277.55,504Z"/></svg>