<svg id="Layer_1" data-name="Layer 1" xmlns="http://www.w3.org/2000/svg" viewBox="0 0 1236.85 1238.1"><defs><style>.cls-1{fill:#fff;}.cls-2{fill:#f2e478;}.cls-3{fill:#f4f3f4;}</style></defs><path class="cls-1" d="M323,426.31c-36.77-4.56-64.07-29.92-67.13-58.43-2.9-27.07,15.81-59.31,31.16-60,3.56-.16,9.16,1.19,12.69-2.31s2.36-8.92,2.31-13.85a50.82,50.82,0,0,1,11.53-30c14.83-18,51.77-18.35,62.31-4.61,3.62,4.72,4.63,11.77,5.77,11.54s-.57-8.58,0-13.85c2.16-20,43.62-46.42,80.38-34.61,30.58,9.82,46.28,42.37,45.76,54.23-.05,1.13-.44,6.63.77,6.92,1.36.33,3.73-6.07,5-8.46,7.35-13.84,44.21-18.62,73.07-5.77s40.28,38.92,43.46,46.15c6.81,15.43,11.76,38.63,6.93,47.31-.36.64-2.2,3.77-1.16,5,1.3,1.53,6-1.12,9.23-1.92,10.38-2.57,24.12,9.47,30.39,19.62,14.89,24.11-2.23,53.94-3.08,55.38-9.91,16.68-25.23,23.77-31.15,26.15H360.85a22.25,22.25,0,0,1-2.31,0C339.9,463.74,327.44,437.07,323,426.31Z"/><path class="cls-2" d="M728.9,392.82a124.72,124.72,0,0,1-23.18,39.34c-44.43,50.67-115.82,45.23-126.57,44.24-13.54-1.24-71.53-8.31-112.2-59.94-7.48-9.49-41.52-55-32.61-118.3,8.88-63.12,53.9-97.48,65.12-105.48a161.07,161.07,0,0,1,66.62-27.44l22.36-2.91A149.77,149.77,0,0,0,568.23,192c-6,11.47-19.56,38.58-16.62,74.71,2.69,33.09,17.81,55.82,25.73,67.42a151.27,151.27,0,0,0,37.6,38.5c11.9,8.2,40.93,25.56,80,24.86a130,130,0,0,0,28.45-3.69Z"/><path class="cls-3" d="M145.5,442.16c-.09-27.85,16.87-59.36,31.16-60,3.56-.16,9.16,1.2,12.69-2.31s2.36-8.91,2.3-13.84a50.86,50.86,0,0,1,11.54-30C218,318,255,317.67,265.5,331.4c3.62,4.73,4.63,11.77,5.77,11.54s-.58-8.57,0-13.85c2.16-20,43.62-46.42,80.38-34.61,30.58,9.82,46.28,42.37,45.76,54.23-.05,1.14-.44,6.63.77,6.92,1.36.33,3.73-6.07,5-8.46,7.35-13.84,44.21-18.61,73.07-5.77s40.28,38.93,43.46,46.15c6.81,15.44,11.76,38.63,6.93,47.31-.36.64-2.2,3.77-1.16,5,1.3,1.53,6-1.13,9.23-1.93,10.38-2.56,24.11,9.47,30.38,19.62,14.9,24.11-2.22,53.95-3.07,55.38-9.91,16.68-25.23,23.77-31.15,26.15H250.5c-.57,0-1.36,0-2.31,0C201.73,538.34,145.66,492.59,145.5,442.16Z"/></svg>