<svg id="Layer_1" data-name="Layer 1" xmlns="http://www.w3.org/2000/svg" viewBox="0 0 1236.85 1238.1"><defs><style>.cls-1{fill:#fff;}.cls-2{fill:#f4f3f4;}</style></defs><path class="cls-1" d="M89.38,357.64c-.11-34.19,20.71-72.86,38.24-73.63,4.37-.2,11.24,1.47,15.57-2.84s2.9-10.94,2.84-17a62.34,62.34,0,0,1,14.16-36.82c18.2-22.13,63.53-22.52,76.47-5.66,4.44,5.8,5.68,14.44,7.08,14.16s-.7-10.52,0-17c2.65-24.55,53.54-57,98.65-42.49,37.53,12.06,56.8,52,56.17,66.56-.06,1.4-.54,8.14.95,8.5,1.66.4,4.57-7.45,6.13-10.39,9-17,54.26-22.85,89.69-7.08s49.42,47.77,53.34,56.64c8.35,18.95,14.43,47.41,8.49,58.06-.44.79-2.69,4.63-1.41,6.14,1.59,1.88,7.37-1.38,11.33-2.36,12.74-3.15,29.59,11.62,37.29,24.07,18.28,29.6-2.73,66.22-3.78,68-12.16,20.47-31,29.17-38.23,32.09H218.25c-.7,0-1.67,0-2.84,0C158.39,475.69,89.58,419.54,89.38,357.64Z"/><path class="cls-2" d="M263.72,513.66c-45.13-5.6-78.63-36.73-82.39-71.72-3.57-33.23,19.4-72.8,38.23-73.64,4.38-.19,11.25,1.48,15.58-2.83s2.9-10.94,2.83-17a62.42,62.42,0,0,1,14.16-36.82c18.21-22.13,63.54-22.52,76.47-5.66,4.45,5.79,5.69,14.44,7.08,14.16s-.7-10.52,0-17c2.66-24.54,53.54-57,98.66-42.48,37.53,12.06,56.8,52,56.17,66.56-.06,1.39-.55,8.13.94,8.49,1.67.41,4.58-7.45,6.14-10.38,9-17,54.26-22.85,89.68-7.08S636.7,366,640.61,374.91C649,393.85,655,422.32,649.11,433c-.44.79-2.7,4.63-1.42,6.14,1.6,1.88,7.37-1.38,11.33-2.36,12.74-3.15,29.6,11.62,37.29,24.07,18.29,29.6-2.73,66.21-3.77,68-12.16,20.48-31,29.18-38.24,32.1H310.19a22.27,22.27,0,0,1-2.83,0C284.48,559.59,269.2,526.86,263.72,513.66Z"/><path class="cls-1" d="M334.92,606.17a130.81,130.81,0,0,1-12.12,21,56.4,56.4,0,0,0-8.31,14.68,55.71,55.71,0,0,0-2.2,8.26c0,.15-.05.27-.06.35A23.85,23.85,0,0,0,315,664.2c5.14,9.19,16.49,13.57,26.39,11.9,13.14-2.22,22.74-14.93,22.09-26.68a22.81,22.81,0,0,0-4-11.35Z"/><path class="cls-1" d="M478.37,606.17a131.48,131.48,0,0,1-12.13,21,56.14,56.14,0,0,0-8.3,14.68,55,55,0,0,0-2.21,8.26,3.48,3.48,0,0,1-.06.35,23.87,23.87,0,0,0,2.75,13.71c5.14,9.19,16.49,13.57,26.39,11.9,13.14-2.22,22.74-14.93,22.08-26.68a22.62,22.62,0,0,0-4-11.35Z"/><path class="cls-1" d="M406.65,698.18a130.84,130.84,0,0,1-12.13,21,56.75,56.75,0,0,0-8.31,14.68,56,56,0,0,0-2.2,8.27c0,.15-.05.27-.06.35a23.9,23.9,0,0,0,2.74,13.7c5.15,9.2,16.49,13.58,26.4,11.91,13.13-2.22,22.73-14.94,22.08-26.69a22.71,22.71,0,0,0-4-11.34Z"/><path class="cls-1" d="M550.09,698.18a130.94,130.94,0,0,1-12.12,21,56.75,56.75,0,0,0-8.31,14.68,54.59,54.59,0,0,0-2.2,8.27c0,.15-.05.27-.06.35a23.82,23.82,0,0,0,2.74,13.7c5.14,9.2,16.49,13.58,26.39,11.91,13.14-2.22,22.74-14.94,22.08-26.69a22.72,22.72,0,0,0-4-11.34Z"/><path class="cls-1" d="M621.82,606.17a131.48,131.48,0,0,1-12.13,21,56.4,56.4,0,0,0-8.31,14.68,55.71,55.71,0,0,0-2.2,8.26c0,.15,0,.27-.06.35a23.93,23.93,0,0,0,2.74,13.71c5.15,9.19,16.49,13.57,26.4,11.9,13.13-2.22,22.73-14.93,22.08-26.68a22.72,22.72,0,0,0-4-11.35Z"/></svg>