<svg id="Layer_1" data-name="Layer 1" xmlns="http://www.w3.org/2000/svg" xmlns:xlink="http://www.w3.org/1999/xlink" viewBox="0 0 1236.85 1238.1"><defs><style>.cls-1{fill:none;}.cls-2{fill:#f2a100;}.cls-3{fill:#f6d000;}.cls-4{clip-path:url(#clip-path);}.cls-5{fill:#e9c304;}.cls-6{fill:#f4f3f4;}</style><clipPath id="clip-path"><rect class="cls-1" x="298.24" y="247.22" width="80.14" height="160.27"/></clipPath></defs><path class="cls-2" d="M394.41,450.11l-53.27-31.26q-1.29,29.2-2.6,58.4l-34.78-50.43L276.53,481q-6.3-28.59-12.61-57.2l-46.09,36.89Q223.4,433,229,405.37l-57.61,14q15.94-25.73,31.9-51.45l-59.05-4.42,55.34-34.18-59-27.83,65.24-12-44.93-46.66,61.41,13.61q-10.1-30-20.17-60.07l52,38.61q1.92-32.88,3.83-65.76l36.62,52.28q12.69-28,25.39-56,6.19,32.46,12.4,64.94l46.3-44.63-13,58.95,59.45-17.72L389,280.33l63.31,2.6-59.63,32.95L456,344.94,392,355.72l43.62,47.93-65.08-14.83Z"/><circle class="cls-3" cx="298.24" cy="327.36" r="80.14"/><g class="cls-4"><circle class="cls-5" cx="298.24" cy="327.36" r="80.14"/></g><path class="cls-6" d="M624.18,549.37c1.92-1.11,44.61-26.72,44.88-74.46.26-44.44-36.43-76.3-46.91-76.5-.76,0-5.13.11-6.13-2s1.62-5,2-5.54c4.94-6.27,1.11-39-14.28-64.64-18.66-31.12-59.83-61.14-109.78-63.28-72.09-3.09-115.08,53.94-115.73,55.74a9.26,9.26,0,0,1-1,2.06s-.22.35-.57.79a12.2,12.2,0,0,1-1.35,1.43c-1.44,1.27-26.94-11.82-42.84-15.5a65.51,65.51,0,0,0-25.73-.29c-26.78,5.33-50.19,30.75-54.6,56.13-1.94,11.17-1.78,31.62-1.78,31.57s-7.53-1-7.65-1c-10.8-4.38-31.23,6.13-41.31,14.28-22.56,18.25-23.24,48.92-23.46,58.65-.7,31.28,14.58,61.75,38.25,78.54a80.16,80.16,0,0,0,9.69,5.89,25,25,0,0,0,7.27,1.25l381.26-1Z"/></svg>