<svg id="Layer_1" data-name="Layer 1" xmlns="http://www.w3.org/2000/svg" viewBox="0 0 1236.85 1238.1"><defs><style>.cls-1{fill:#a3cbcc;opacity:0.5;}.cls-2{fill:#f2e478;}</style></defs><circle class="cls-1" cx="383.34" cy="364.64" r="255.76"/><path class="cls-2" d="M427.47,176.68a151.8,151.8,0,0,1,53.12,16.09c72.58,38,86.61,123.84,88.53,136.82,2.41,16.35,10.69,86.86-38.63,149.69-9.08,11.56-53,64.81-130.38,72.43C323,559.32,269.52,516,256.85,505a195.77,195.77,0,0,1-51.5-70.82l-9.84-25.57A182.26,182.26,0,0,0,236.29,424c15.24,3.73,51.16,12,93-1.79,38.31-12.66,60.82-37,72.25-49.72,22.91-25.42,32.69-50.2,34.7-55.44,6.27-16.4,18.45-55.67,6.43-101.58a157,157,0,0,0-12.52-32.55Z"/></svg>